<svg xmlns="http://www.w3.org/2000/svg" xmlns:xlink="http://www.w3.org/1999/xlink" x="0px" y="0px" viewBox="0 0 511.999 511.999" fill="#ffffff"><g><path d="M443.42,168.918C434.064,75.052,354.166,0,256.009,0C152.129,0,67.616,84.513,67.616,188.393c0,41.06,12.905,79.974,37.328,112.572l137.279,203.701c3.09,4.585,8.257,7.333,13.785,7.333c5.528,0,10.695-2.748,13.785-7.334l137.171-203.562C435.226,263.384,448.173,216.455,443.42,168.918zM380.14,281.464c-0.175,0.232-0.345,0.469-0.506,0.71L256.008,465.631L132.276,282.033c-0.162-0.24-0.33-0.477-0.504-0.708c-20.221-26.86-30.91-58.996-30.91-92.932c0-85.548,69.599-155.147,155.147-155.147c78.774,0,146.563,61.044,154.331,138.976C414.274,211.579,403.548,250.376,380.14,281.464z"/></g><g><path d="M256.009,105.263c-45.829,0-83.114,37.285-83.114,83.114c0,45.829,37.285,83.114,83.114,83.114c45.829,0,83.114-37.285,83.114-83.114C339.123,142.548,301.838,105.263,256.009,105.263zM256.009,238.246c-27.498,0-49.869-22.371-49.869-49.869s22.371-49.869,49.869-49.869s49.869,22.371,49.869,49.869C305.877,215.875,283.506,238.246,256.009,238.246z"/></g></svg>